HIERARCHY
ROOT SpineBase
{
  OFFSET 0.000000 0.000000 0.000000
  CHANNELS 6 Xposition Yposition Zposition Zrotation Xrotation Yrotation
  JOINT SpineMid
  {
    OFFSET 0.000000 29.910244 0.000000
    CHANNELS 3 Zrotation Xrotation Yrotation
    JOINT SpineShoulder
    {
      OFFSET -0.360006 22.277443 -0.596254
      CHANNELS 3 Zrotation Xrotation Yrotation
      JOINT Neck
      {
        OFFSET -0.251968 7.347211 -0.457576
        CHANNELS 3 Zrotation Xrotation Yrotation
        JOINT Head
        {
          OFFSET -0.893081 10.575814 3.785622
          CHANNELS 3 Zrotation Xrotation Yrotation
          End Site
          {
            OFFSET 0 0 0
          }
        }
      }
      JOINT ShoulderLeft
      {
        OFFSET -4.343067 -5.090802 11.557236
        CHANNELS 3 Zrotation Xrotation Yrotation
        JOINT ElbowLeft
        {
          OFFSET -3.969332 -15.320088 -19.308527
          CHANNELS 3 Zrotation Xrotation Yrotation
          JOINT WristLeft
          {
            OFFSET -2.176424 -23.556602 -2.095499
            CHANNELS 3 Zrotation Xrotation Yrotation
            JOINT HandLeft
            {
              OFFSET -1.609064 -4.391986 0.913234
              CHANNELS 3 Zrotation Xrotation Yrotation
              JOINT HandTipLeft
              {
                OFFSET -2.275183 -6.463968 -0.768700
                CHANNELS 3 Zrotation Xrotation Yrotation
                End Site
                {
                  OFFSET 0 0 0
                }
              }
              JOINT ThumbLeft
              {
                OFFSET 2.536780 0.042062 -1.244672
                CHANNELS 3 Zrotation Xrotation Yrotation
                End Site
                {
                  OFFSET 0 0 0
                }
              }
            }
          }
        }
      }
      JOINT ShoulderRight
      {
        OFFSET -3.707237 -4.486096 -10.646247
        CHANNELS 3 Zrotation Xrotation Yrotation
        JOINT ElbowRight
        {
          OFFSET -3.844079 -23.530831 -1.815995
          CHANNELS 3 Zrotation Xrotation Yrotation
          JOINT WristRight
          {
            OFFSET -5.806054 -22.479852 3.698693
            CHANNELS 3 Zrotation Xrotation Yrotation
            JOINT HandRight
            {
              OFFSET -1.063736 -6.988193 1.754170
              CHANNELS 3 Zrotation Xrotation Yrotation
              JOINT HandTipRight
              {
                OFFSET -1.272061 -5.504861 1.394934
                CHANNELS 3 Zrotation Xrotation Yrotation
                End Site
                {
                  OFFSET 0 0 0
                }
              }
              JOINT ThumbRight
              {
                OFFSET 2.929010 -1.460462 -0.742459
                CHANNELS 3 Zrotation Xrotation Yrotation
                End Site
                {
                  OFFSET 0 0 0
                }
              }
            }
          }
        }
      }
    }
  }
  JOINT HipLeft
  {
    OFFSET -1.294005 -0.200958 -1.198575
    CHANNELS 3 Zrotation Xrotation Yrotation
    JOINT KneeLeft
    {
      OFFSET 15.610962 -28.277840 11.840889
      CHANNELS 3 Zrotation Xrotation Yrotation
      JOINT AnkleLeft
      {
        OFFSET -6.241371 -34.109273 -8.526499
        CHANNELS 3 Zrotation Xrotation Yrotation
        JOINT FootLeft
        {
          OFFSET -0.115136 -4.257037 7.016050
          CHANNELS 3 Zrotation Xrotation Yrotation
          End Site
          {
            OFFSET 0 0 0
          }
        }
      }
    }
  }
  JOINT HipRight
  {
    OFFSET -1.085672 1.519928 -5.084206
    CHANNELS 3 Zrotation Xrotation Yrotation
    JOINT KneeRight
    {
      OFFSET 1.916221 -28.011091 4.789764
      CHANNELS 3 Zrotation Xrotation Yrotation
      JOINT AnkleRight
      {
        OFFSET 8.557870 -32.276332 1.201304
        CHANNELS 3 Zrotation Xrotation Yrotation
        JOINT FootRight
        {
          OFFSET -12.545679 -2.662123 -4.356533
          CHANNELS 3 Zrotation Xrotation Yrotation
          End Site
          {
            OFFSET 0 0 0
          }
        }
      }
    }
  }
}
MOTION
Frames: 8
Frame Time: 0.033333
109.446187 66.845108 317.014230 -0.000000 0.000000 86.930954 -0.000000 0.000000 -86.930954 -0.000000 0.000000 0.000000 -0.000000 0.000000 0.000000 0.000000 0.000000 0.000000 -0.000000 0.000000 0.000000 -0.000000 0.000000 0.000000 -0.000000 0.000000 0.000000 -0.000000 0.000000 0.000000 0.000000 0.000000 0.000000 0.000000 0.000000 0.000000 -0.000000 0.000000 0.000000 -0.000000 0.000000 0.000000 -0.000000 0.000000 0.000000 -0.000000 0.000000 0.000000 0.000000 0.000000 0.000000 0.000000 0.000000 0.000000 -0.000000 0.000000 -86.930954 -0.000000 0.000000 0.000000 -0.000000 0.000000 0.000000 0.000000 0.000000 0.000000 -0.000000 0.000000 -86.930954 -0.000000 0.000000 0.000000 -0.000000 0.000000 0.000000 0.000000 0.000000 0.000000
109.412627 66.807104 316.968280 0.038560 0.089045 86.508765 -0.091228 0.033066 -86.508768 -0.000000 0.000000 0.000000 -0.000000 0.000000 0.000000 0.000000 0.000000 0.000000 -0.000000 0.000000 0.000000 -0.000000 0.000000 0.000000 -0.000000 0.000000 0.000000 -1.839911 0.909949 -0.086286 0.000000 0.000000 0.000000 0.000000 0.000000 0.000000 -0.000000 0.000000 0.000000 -0.000000 0.000000 0.000000 -0.000000 0.000000 0.000000 -0.000000 0.000000 0.000000 0.000000 0.000000 0.000000 0.000000 0.000000 0.000000 -0.091228 0.033066 -86.508768 1.873578 -0.389010 -0.392354 -3.247563 13.286635 -2.414028 0.000000 0.000000 0.000000 -0.091228 0.033066 -86.508768 -0.000000 0.000000 0.000000 5.410747 -2.164041 1.929951 0.000000 0.000000 0.000000
109.370966 66.781902 316.932485 0.063220 0.157618 86.220204 -0.161442 0.052692 -86.220216 -0.000000 0.000000 0.000000 -0.000000 0.000000 0.000000 0.000000 0.000000 0.000000 -0.000000 0.000000 0.000000 -0.000000 0.000000 0.000000 -0.428123 0.935270 -0.428322 -2.880426 0.725866 0.232302 0.000000 0.000000 0.000000 0.000000 0.000000 0.000000 -0.000000 0.000000 0.000000 -0.000000 0.000000 0.000000 -0.073244 0.921237 -0.158334 1.129282 -1.618171 0.611312 0.000000 0.000000 0.000000 0.000000 0.000000 0.000000 -0.161442 0.052692 -86.220216 3.632840 -0.721981 -0.759008 -6.035457 24.300979 -4.535356 0.000000 0.000000 0.000000 -0.161442 0.052692 -86.220216 -0.000000 0.000000 0.000000 11.740701 -4.416071 4.407985 0.000000 0.000000 0.000000
109.321203 66.769500 316.906844 0.074023 0.205802 86.064618 -0.210397 0.059724 -86.064641 -0.000000 0.000000 0.000000 -0.000000 0.000000 0.000000 0.000000 0.000000 0.000000 -0.000000 0.000000 0.000000 -0.000000 0.000000 0.000000 -0.667116 1.106117 -0.537458 -3.737955 1.176125 0.264668 0.000000 0.000000 0.000000 0.000000 0.000000 0.000000 -0.000000 0.000000 0.000000 -0.000000 0.000000 0.000000 -0.027855 1.199880 -0.189844 1.407302 -2.117737 0.791549 0.000000 0.000000 0.000000 0.000000 0.000000 0.000000 -0.210397 0.059724 -86.064641 5.192781 -0.971270 -1.088492 -8.380339 32.392241 -6.381984 0.000000 0.000000 0.000000 -0.210397 0.059724 -86.064641 -0.000000 0.000000 0.000000 18.571239 -6.486234 7.311095 0.000000 0.000000 0.000000
109.263340 66.769899 316.891358 0.070991 0.233652 86.037403 -0.238000 0.054675 -86.037434 -0.000000 0.000000 0.000000 -0.197007 0.795607 0.138749 0.000000 0.000000 0.000000 -0.000000 0.000000 0.000000 -0.000000 0.000000 0.000000 -0.926773 1.088487 -0.582120 -4.207614 1.683453 0.251064 0.000000 0.000000 0.000000 0.000000 0.000000 0.000000 -0.000000 0.000000 0.000000 -0.000000 0.000000 0.000000 0.075609 1.339647 -0.186399 1.499080 -2.403461 0.880353 0.000000 0.000000 0.000000 0.000000 0.000000 0.000000 -0.238000 0.054675 -86.037434 6.466575 -1.109720 -1.369862 -10.295863 37.700829 -8.031856 0.000000 0.000000 0.000000 -0.238000 0.054675 -86.037434 0.849749 -0.402439 -0.071942 24.207105 -7.697808 10.160884 0.000000 0.000000 0.000000
109.197375 66.783099 316.886027 0.054129 0.241199 86.130568 -0.244302 0.037729 -86.130602 -0.000000 0.000000 0.000000 -0.212956 0.975227 0.159933 0.000000 0.000000 0.000000 -0.000000 0.000000 0.000000 -0.000000 0.000000 0.000000 -1.209723 0.884145 -0.564857 -4.289205 2.249406 0.190878 0.000000 0.000000 0.000000 0.000000 0.000000 0.000000 -0.000000 0.000000 0.000000 -0.000000 0.000000 0.000000 0.237737 1.332226 -0.146360 1.408026 -2.471147 0.875234 0.000000 0.000000 0.000000 0.000000 0.000000 0.000000 -0.244302 0.037729 -86.130602 7.375209 -1.114435 -1.592978 -11.771768 40.604672 -9.580323 0.000000 0.000000 0.000000 -0.244302 0.037729 -86.130602 0.935149 -0.418298 -0.072523 29.235021 -8.705144 12.561400 0.000000 0.000000 0.000000
109.127232 66.816404 316.884510 0.024403 0.222382 86.532438 -0.223450 0.010908 -86.532464 -0.000000 0.000000 0.000000 -0.211527 1.235859 0.181691 0.000000 0.000000 0.000000 -0.000000 0.000000 0.000000 -0.000000 0.000000 0.000000 -1.879776 0.048564 -0.405492 -3.722443 3.680121 -0.063353 0.000000 0.000000 0.000000 0.000000 0.000000 0.000000 -0.000000 0.000000 0.000000 -0.330649 0.725819 -0.239845 0.962770 0.317737 0.247087 0.494430 -2.256416 0.592627 0.000000 0.000000 0.000000 0.000000 0.000000 0.000000 -0.223450 0.010908 -86.532464 7.418913 -0.595905 -1.732141 -12.215958 40.586182 -10.930426 0.000000 0.000000 0.000000 -0.223450 0.010908 -86.532464 0.948422 -0.402643 -0.067968 31.033128 -8.967159 14.090167 0.000000 0.000000 0.000000
109.041977 66.841478 316.912028 -0.019614 0.152597 86.713599 -0.151222 -0.028329 -86.713610 -0.000000 0.000000 0.000000 -0.249656 1.504741 0.218731 0.000000 0.000000 0.000000 -0.000000 0.000000 0.000000 -0.000000 0.000000 0.000000 -2.071727 -1.248590 0.004018 -3.036810 4.523657 -0.330380 0.000000 0.000000 0.000000 0.000000 0.000000 0.000000 0.813078 -0.125051 -0.041486 -1.152364 0.905723 -0.211351 1.533329 -0.507890 0.532687 -0.606536 -1.768804 0.245570 0.000000 0.000000 0.000000 0.000000 0.000000 0.000000 0.442344 0.688282 -86.652189 7.259733 -0.609381 -1.658328 -11.778494 36.112858 -11.660166 0.000000 0.000000 0.000000 -0.151222 -0.028329 -86.713610 1.028234 -0.454785 -0.078035 35.441087 -9.531344 16.278294 0.000000 0.000000 0.000000
